<svg xmlns="http://www.w3.org/2000/svg" width="126.693" height="143.803" viewBox="0 0 126.693 143.803"><defs><style>.a{fill:#ff8121;}</style></defs><path class="a" d="M196.307,182.139a2.245,2.245,0,0,0-.809-.028,5.363,5.363,0,0,1-4.743-5.318,2.359,2.359,0,0,0-4.718,0,10.091,10.091,0,0,0,7.42,9.716v2.359a2.359,2.359,0,1,0,4.718,0v-2.216a10.073,10.073,0,0,0-2.064-19.931,5.356,5.356,0,1,1,5.356-5.356,2.359,2.359,0,1,0,4.718,0,10.091,10.091,0,0,0-8.009-9.86v-2.147a2.359,2.359,0,0,0-4.718,0v2.291a10.072,10.072,0,0,0,2.654,19.788,5.352,5.352,0,0,1,.2,10.7Zm0,0" transform="translate(-131.291 -103.657)"/><path class="a" d="M104.195,140.7a34.2,34.2,0,1,0,34.2-34.2A34.2,34.2,0,0,0,104.195,140.7Zm34.2-29.487A29.487,29.487,0,1,1,108.913,140.7,29.487,29.487,0,0,1,138.4,111.21Zm0,0" transform="translate(-73.579 -75.093)"/><path class="a" d="M111.013,335.754l-18.478,8.73a15.05,15.05,0,0,0-12.83-7.917L62.647,336.1a18.013,18.013,0,0,1-7.752-2l-1.736-.9a30.615,30.615,0,0,0-28.357.03l.108-3.932a2.359,2.359,0,0,0-2.293-2.423l-18.7-.515A2.358,2.358,0,0,0,1.49,328.65L.361,369.7a2.359,2.359,0,0,0,2.293,2.423l18.7.515h.064a2.359,2.359,0,0,0,2.359-2.294l.054-1.964,4.859-2.6a8.334,8.334,0,0,1,6.221-.681l29.017,8.144c.051.015.1.027.153.038a31.068,31.068,0,0,0,6.377.658,31.473,31.473,0,0,0,13.147-2.869,2.191,2.191,0,0,0,.293-.161l42.072-27.214a2.36,2.36,0,0,0,.773-3.142,11.915,11.915,0,0,0-15.735-4.794ZM5.142,367.469l1-36.331,13.988.385-1,36.332Zm76.344-.617a26.745,26.745,0,0,1-16.355,1.825l-28.939-8.123a13.043,13.043,0,0,0-9.723,1.063l-2.483,1.33.665-24.156a25.928,25.928,0,0,1,26.34-1.405l1.736.9a22.782,22.782,0,0,0,9.792,2.529l17.059.469a10.346,10.346,0,0,1,9.832,8.244L64,348.826a2.359,2.359,0,1,0-.13,4.716l28.041.772h.066a2.359,2.359,0,0,0,2.356-2.294,14.969,14.969,0,0,0-.228-3.06l18.952-8.955.055-.026a7.207,7.207,0,0,1,8.15,1.141Zm0,0" transform="translate(-0.36 -230.131)"/><path class="a" d="M216.921,24.767V2.359a2.359,2.359,0,0,0-4.718,0V24.767a2.359,2.359,0,0,0,4.718,0Zm0,0" transform="translate(-149.741 0)"/><path class="a" d="M276.921,52.973V42.359a2.359,2.359,0,0,0-4.718,0V52.973a2.359,2.359,0,0,0,4.718,0Zm0,0" transform="translate(-192.051 -28.206)"/><path class="a" d="M156.921,52.973V42.359a2.359,2.359,0,0,0-4.718,0V52.973a2.359,2.359,0,0,0,4.718,0Zm0,0" transform="translate(-107.432 -28.206)"/></svg>